HIERARCHY
ROOT SpineBase
{
  OFFSET 0.000000 0.000000 0.000000
  CHANNELS 6 Xposition Yposition Zposition Zrotation Xrotation Yrotation
  JOINT SpineMid
  {
    OFFSET -0.000000 30.694354 0.000000
    CHANNELS 3 Zrotation Xrotation Yrotation
    JOINT SpineShoulder
    {
      OFFSET -0.052282 22.793540 -0.713606
      CHANNELS 3 Zrotation Xrotation Yrotation
      JOINT Neck
      {
        OFFSET -0.040857 7.519156 -0.543387
        CHANNELS 3 Zrotation Xrotation Yrotation
        JOINT Head
        {
          OFFSET -5.241211 12.822040 3.060542
          CHANNELS 3 Zrotation Xrotation Yrotation
          End Site
          {
            OFFSET 0 0 0
          }
        }
      }
      JOINT ShoulderLeft
      {
        OFFSET -14.880101 -4.594369 9.619002
        CHANNELS 3 Zrotation Xrotation Yrotation
        JOINT ElbowLeft
        {
          OFFSET -2.321489 -26.963696 4.039207
          CHANNELS 3 Zrotation Xrotation Yrotation
          JOINT WristLeft
          {
            OFFSET 0.572887 -22.536911 -2.166867
            CHANNELS 3 Zrotation Xrotation Yrotation
            JOINT HandLeft
            {
              OFFSET 1.790758 -6.724225 0.254122
              CHANNELS 3 Zrotation Xrotation Yrotation
              JOINT HandTipLeft
              {
                OFFSET 0.992541 -5.495307 -1.032788
                CHANNELS 3 Zrotation Xrotation Yrotation
                End Site
                {
                  OFFSET 0 0 0
                }
              }
              JOINT ThumbLeft
              {
                OFFSET 0.968218 0.705472 -4.246398
                CHANNELS 3 Zrotation Xrotation Yrotation
                End Site
                {
                  OFFSET 0 0 0
                }
              }
            }
          }
        }
      }
      JOINT ShoulderRight
      {
        OFFSET 11.923277 -3.662518 -9.869960
        CHANNELS 3 Zrotation Xrotation Yrotation
        JOINT ElbowRight
        {
          OFFSET 7.737497 -27.182434 -4.112946
          CHANNELS 3 Zrotation Xrotation Yrotation
          JOINT WristRight
          {
            OFFSET 1.454599 -20.652487 -6.082072
            CHANNELS 3 Zrotation Xrotation Yrotation
            JOINT HandRight
            {
              OFFSET -0.785171 -4.443673 -0.654809
              CHANNELS 3 Zrotation Xrotation Yrotation
              JOINT HandTipRight
              {
                OFFSET -1.466258 -7.534832 -0.603061
                CHANNELS 3 Zrotation Xrotation Yrotation
                End Site
                {
                  OFFSET 0 0 0
                }
              }
              JOINT ThumbRight
              {
                OFFSET 1.649860 -1.625547 -1.203709
                CHANNELS 3 Zrotation Xrotation Yrotation
                End Site
                {
                  OFFSET 0 0 0
                }
              }
            }
          }
        }
      }
    }
  }
  JOINT HipLeft
  {
    OFFSET -4.849929 0.031058 -0.497100
    CHANNELS 3 Zrotation Xrotation Yrotation
    JOINT KneeLeft
    {
      OFFSET 1.227906 -39.275366 2.969870
      CHANNELS 3 Zrotation Xrotation Yrotation
      JOINT AnkleLeft
      {
        OFFSET 7.519777 -37.554478 9.366116
        CHANNELS 3 Zrotation Xrotation Yrotation
        JOINT FootLeft
        {
          OFFSET -3.943926 -7.217166 -4.632323
          CHANNELS 3 Zrotation Xrotation Yrotation
          End Site
          {
            OFFSET 0 0 0
          }
        }
      }
    }
  }
  JOINT HipRight
  {
    OFFSET 4.617478 1.526491 -6.962513
    CHANNELS 3 Zrotation Xrotation Yrotation
    JOINT KneeRight
    {
      OFFSET 7.566650 -40.397463 -5.649512
      CHANNELS 3 Zrotation Xrotation Yrotation
      JOINT AnkleRight
      {
        OFFSET 4.357376 -36.124237 5.679475
        CHANNELS 3 Zrotation Xrotation Yrotation
        JOINT FootRight
        {
          OFFSET -0.936943 -7.779498 -7.748205
          CHANNELS 3 Zrotation Xrotation Yrotation
          End Site
          {
            OFFSET 0 0 0
          }
        }
      }
    }
  }
}
MOTION
Frames: 5
Frame Time: 0.033333
10.023560 87.764574 370.108804 -0.000000 0.000000 34.329668 -0.000000 -0.000000 -34.329668 -0.000000 0.000000 0.000000 -0.000000 0.000000 0.000000 0.000000 0.000000 0.000000 -0.000000 0.000000 0.000000 -0.000000 0.000000 0.000000 -0.000000 0.000000 0.000000 -0.000000 0.000000 0.000000 0.000000 0.000000 0.000000 0.000000 0.000000 0.000000 -0.000000 0.000000 0.000000 -0.000000 0.000000 0.000000 -0.000000 0.000000 0.000000 -0.000000 0.000000 0.000000 0.000000 0.000000 0.000000 0.000000 0.000000 0.000000 -0.000000 -0.000000 -34.329668 -0.000000 0.000000 0.000000 -0.000000 0.000000 0.000000 0.000000 0.000000 0.000000 -0.000000 -0.000000 -34.329668 -0.000000 0.000000 0.000000 -0.000000 0.000000 0.000000 0.000000 0.000000 0.000000
9.978511 87.718822 370.103632 -0.030842 -0.023655 34.738765 0.038824 0.001864 -34.738772 -0.000000 0.000000 0.000000 -0.000000 0.000000 0.000000 0.000000 0.000000 0.000000 -0.000000 0.000000 0.000000 -0.000000 0.000000 0.000000 -5.756971 -1.190441 -0.602479 2.200168 -2.290698 0.486820 0.000000 0.000000 0.000000 0.000000 0.000000 0.000000 -0.000000 0.000000 0.000000 -0.362994 0.920411 0.174271 -0.077159 2.003939 -0.613393 1.041144 -0.637597 -0.011560 0.000000 0.000000 0.000000 0.000000 0.000000 0.000000 0.038824 0.001864 -34.738772 -0.000000 0.000000 0.000000 -1.140534 0.928238 0.231589 0.000000 0.000000 0.000000 0.038824 0.001864 -34.738772 -0.000000 0.000000 0.000000 -2.456794 -5.947187 3.192704 0.000000 0.000000 0.000000
9.923913 87.676952 370.081277 -0.080531 -0.028612 35.141555 0.082322 -0.022957 -35.141559 -0.000000 0.000000 0.000000 -0.000000 0.000000 0.000000 0.000000 0.000000 0.000000 -0.289804 -1.319391 0.066721 -0.888135 0.575432 0.040559 -9.690115 -0.999348 -1.030645 4.474119 -3.954609 0.775810 0.000000 0.000000 0.000000 0.000000 0.000000 0.000000 -0.000000 0.000000 0.000000 -0.722849 1.759875 0.346528 -0.349531 3.349525 -1.045930 2.151003 -0.555189 -0.127139 0.000000 0.000000 0.000000 0.000000 0.000000 0.000000 0.082322 -0.022957 -35.141559 -0.000000 0.000000 0.000000 -2.101738 1.698720 0.443288 0.000000 0.000000 0.000000 0.082322 -0.022957 -35.141559 -0.000000 0.000000 0.000000 -4.570999 -11.798127 6.101856 0.000000 0.000000 0.000000
9.859766 87.638964 370.041737 -0.149010 -0.014932 35.537309 0.129934 -0.074459 -35.537244 -0.000000 0.000000 0.000000 -0.000000 0.000000 0.000000 0.000000 0.000000 0.000000 -0.481350 -1.745101 0.070634 -1.344147 0.978156 0.114366 -13.514496 -0.924161 -1.273800 6.558953 -5.338243 0.929391 0.000000 0.000000 0.000000 0.000000 0.000000 0.000000 -0.098110 0.818905 0.248443 -0.973142 1.703960 0.253404 -0.830540 3.965622 -1.295079 3.314392 0.307416 -0.385774 0.000000 0.000000 0.000000 0.000000 0.000000 0.000000 0.129934 -0.074459 -35.537244 -0.000000 0.000000 0.000000 -2.887023 2.317074 0.628625 0.000000 0.000000 0.000000 0.129934 -0.074459 -35.537244 -0.000000 0.000000 0.000000 -6.206571 -16.850865 8.496186 0.000000 0.000000 0.000000
9.786070 87.604858 369.985013 -0.236224 0.017323 35.925283 0.181127 -0.152628 -35.925006 -0.000000 0.000000 0.000000 -0.000000 0.000000 0.000000 0.000000 0.000000 0.000000 -0.704580 -2.021938 0.055941 -1.809617 1.466885 0.223711 -16.697679 -0.494280 -1.310598 8.320175 -6.656461 0.980280 0.000000 0.000000 0.000000 0.000000 0.000000 0.000000 -0.133080 1.129692 0.342627 -1.284867 2.074896 0.313353 -1.517808 3.819069 -1.374062 4.516904 1.970833 -0.817668 0.000000 0.000000 0.000000 0.000000 0.000000 0.000000 0.181127 -0.152628 -35.925006 -0.000000 0.000000 0.000000 -3.499524 2.788433 0.782675 0.000000 0.000000 0.000000 0.181127 -0.152628 -35.925006 -0.000000 0.000000 0.000000 -7.314043 -20.476593 10.198119 0.000000 0.000000 0.000000
